# xmcd
#
# Track frame offsets:
#   150
#   17525
#   39466
#   52314
#   70135
#   84248
#   107797
#   119853
#   128890
#   144700
#   156362
#   175800
#
# Disc length: 2499 seconds
#
# Revision: 0
# Processed by: cddbd v1.5.2PL0 Copyright (c) Steve Scherf et al.
# Submitted via: uFREEDB ActiveX Control 1.5
#
DISCID=ac09c10c
DTITLE=OLD MISICS LPS - WESLEY
DYEAR=1900
DGENRE=Disco
TTITLE0=W1
TTITLE1=W2
TTITLE2=W3
TTITLE3=W4
TTITLE4=W5
TTITLE5=W6
TTITLE6=W7
TTITLE7=W8
TTITLE8=W9
TTITLE9=W10
TTITLE10=W11
TTITLE11=W12
EXTD=
EXTT0=
EXTT1=
EXTT2=
EXTT3=
EXTT4=
EXTT5=
EXTT6=
EXTT7=
EXTT8=
EXTT9=
EXTT10=
EXTT11=
PLAYORDER=
